<?xml version="1.0" standalone="no"?><svg xmlns="http://www.w3.org/2000/svg" viewBox="0 0 1440 320"><path fill="#2CA3CF" fill-opacity="1" d="M0,160L30,154.7C60,149,120,139,180,165.3C240,192,300,256,360,272C420,288,480,256,540,218.7C600,181,660,139,720,144C780,149,840,203,900,224C960,245,1020,235,1080,192C1140,149,1200,75,1260,48C1320,21,1380,43,1410,53.3L1440,64L1440,320L1410,320C1380,320,1320,320,1260,320C1200,320,1140,320,1080,320C1020,320,960,320,900,320C840,320,780,320,720,320C660,320,600,320,540,320C480,320,420,320,360,320C300,320,240,320,180,320C120,320,60,320,30,320L0,320Z"></path></svg>